<?xml version="1.0" encoding="UTF-8" standalone="no"?>
<!-- Created with Inkscape (http://www.inkscape.org/) -->

<svg
   width="180"
   height="180"
   viewBox="0 0 180 180"
   version="1.1"
   id="svg1"
   sodipodi:docname="favicon.svg"
   inkscape:version="1.3.2 (091e20e, 2023-11-25, custom)"
   xmlns:inkscape="http://www.inkscape.org/namespaces/inkscape"
   xmlns:sodipodi="http://sodipodi.sourceforge.net/DTD/sodipodi-0.dtd"
   xmlns="http://www.w3.org/2000/svg"
   xmlns:svg="http://www.w3.org/2000/svg">
  <sodipodi:namedview
     id="namedview1"
     pagecolor="#ffffff"
     bordercolor="#000000"
     borderopacity="0.25"
     inkscape:showpageshadow="2"
     inkscape:pageopacity="0.0"
     inkscape:pagecheckerboard="0"
     inkscape:deskcolor="#d1d1d1"
     inkscape:document-units="px"
     showgrid="false"
     inkscape:zoom="2.8284271"
     inkscape:cx="97.757513"
     inkscape:cy="75.130096"
     inkscape:window-width="1920"
     inkscape:window-height="1001"
     inkscape:window-x="-9"
     inkscape:window-y="-9"
     inkscape:window-maximized="1"
     inkscape:current-layer="layer1">
    <inkscape:grid
       id="grid1"
       units="px"
       originx="0"
       originy="0"
       spacingx="1"
       spacingy="1"
       empcolor="#0099e5"
       empopacity="0.30196078"
       color="#0099e5"
       opacity="0.14901961"
       empspacing="5"
       dotted="false"
       gridanglex="30"
       gridanglez="30"
       visible="false" />
  </sodipodi:namedview>
  <defs
     id="defs1">
    <rect
       x="-96.873629"
       y="93.338095"
       width="148.13887"
       height="103.23759"
       id="rect3" />
  </defs>
  <g
     inkscape:label="Capa 1"
     inkscape:groupmode="layer"
     id="layer1">
    <rect
       style="fill:#ffde5c;fill-rule:evenodd;fill-opacity:1"
       id="rect2"
       width="180.0023"
       height="20.002811"
       x="0"
       y="0"
       ry="0.0390625" />
    <rect
       style="fill:#ff4b55;fill-rule:evenodd;fill-opacity:1"
       id="rect2-1"
       width="180.0023"
       height="20.002811"
       x="0"
       y="20"
       ry="0.0390625" />
    <rect
       style="fill:#ffde5c;fill-rule:evenodd;fill-opacity:1"
       id="rect2-5"
       width="180.0023"
       height="20.002811"
       x="0"
       y="40"
       ry="0.0390625" />
    <rect
       style="fill:#ff4b55;fill-rule:evenodd;fill-opacity:1"
       id="rect2-0"
       width="180.0023"
       height="20.002811"
       x="0"
       y="60"
       ry="0.0390625" />
    <rect
       style="fill:#ffde5c;fill-rule:evenodd;fill-opacity:1"
       id="rect2-3"
       width="180.0023"
       height="20.002811"
       x="-0.0014554039"
       y="80.000008"
       ry="0.0390625" />
    <rect
       style="fill:#ff4b55;fill-rule:evenodd;fill-opacity:1"
       id="rect2-16"
       width="180.0023"
       height="20.002811"
       x="0"
       y="100"
       ry="0.0390625" />
    <rect
       style="fill:#ffde5c;fill-rule:evenodd;fill-opacity:1"
       id="rect2-59"
       width="180.0023"
       height="20.002811"
       x="7.5520948e-05"
       y="119.99966"
       ry="0.0390625" />
    <rect
       style="fill:#ff4b55;fill-rule:evenodd;fill-opacity:1"
       id="rect2-7"
       width="180.0023"
       height="20.002811"
       x="0.00096064806"
       y="139.99748"
       ry="0.0390625" />
    <rect
       style="fill:#ffde5c;fill-rule:evenodd;fill-opacity:1"
       id="rect2-36"
       width="180.0023"
       height="20.002811"
       x="0.00071275234"
       y="159.99969"
       ry="0.0390625" />
    <g
       id="g22"
       transform="matrix(0.78573375,0,0,0.80002237,0.00429748,0.00305419)">
      <rect
         style="fill:#65476f;fill-opacity:1"
         id="rect20"
         width="139.99902"
         height="99.996864"
         x="0"
         y="0"
         ry="0.0390625" />
      <path
         fill="#f0eff1"
         opacity="1"
         stroke="none"
         d="m 65.278087,68.88797 c -0.22,2.417 -0.44,4.38 -0.66,6.343 -0.71,-0.049 -1.42,-0.098 -2.13,-0.148 -0.111,-2.023 0.091,-4.13 -0.419,-6.047 -0.522,-1.961 -1.681,-5.275 -2.669,-5.315 -3.56,-0.144 -3.028,3.095 -3.109,5.525 -0.06,1.792 -0.012,3.589 -0.012,5.645 -5.147,0 -9.747,0 -15.133,0 0,-2.493 0.328,-4.979 -0.119,-7.316 -0.287,-1.5 -1.715,-2.782 -2.632,-4.162 -1.035,1.427 -2.601,2.728 -2.977,4.312 -0.515,2.174 -0.129,4.563 -0.129,7.143 -7.12,0 -13.71,0 -21.4,0 0,-9.632 0,-19.248 0,-29.44 2.717,0 6.421,0 11.012,0 -0.333,-5.221 -0.627,-9.82 -0.948,-14.843 4.304,0 9.102,0 13.384,0 -0.263,4.8 -0.517,9.424 -0.785,14.304 2.28,0 3.891,0 6.328,0 -0.305,-4.672 -0.606,-9.283 -0.934,-14.31 4.317,0 9.115,0 13.394,0 -0.264,4.812 -0.517,9.43 -0.785,14.313 3.29,0 5.892,0 8.448,0 0,-5.681 0,-11.28 0,-17.326999 4.414,0 9.345,0 13.676,0 0,5.886999 0,11.331999 0,17.175999 2.28,0 4.973,0 8.374,0 -0.3,-4.692 -0.588,-9.199 -0.904,-14.144 4.445,0 9.24,0 14.102999,0 -0.473,2.496 -1.079,4.797 -1.304,7.135 -0.219,2.267 -0.048,4.572 -0.048,7.117 2.126,0 3.722004,0 6.073004,0 -0.224,-4.738 -0.444,-9.394 -0.68,-14.374 4.317,0 9.04,0 13.599,0 -0.438,4.674 -0.869,9.265 -1.364,14.539 4.463,0 8.196,0 11.38,0 0,10.288 0,19.938 0,29.86 -7.465,0 -14.051,0 -21.402,0 0,-2.613 0.372,-5.281 -0.145,-7.764 -0.29,-1.39 -2.054,-2.473 -3.154,-3.695 -0.874,1.237 -2.273004,2.383 -2.506004,3.73 -0.412,2.389 -0.115,4.901 -0.115,7.683 -5.054999,0 -9.639999,0 -15.081999,0 0,-2.477 0.367,-5.128 -0.141,-7.601 -0.291,-1.418 -2,-2.546 -3.07,-3.804 -0.906,1.341 -2.27,2.576 -2.614,4.048 -0.581,2.485 -0.515,5.121 -0.721,7.694 -0.808,-0.06 -1.616,-0.119 -2.424,-0.178 0,-2.037 0.055,-4.075 -0.012,-6.11 -0.118,-3.606 0.524,-8.251 -4.684,-8.317 -4.97,-0.062 -4.431,4.404 -4.56,8.328 m 46.616003,-19.049 c -1.05,-1.516 -2.099,-3.031 -3.149,-4.547 -0.957,1.504 -2.391,2.901 -2.754,4.536 -0.48,2.154 -0.118,4.494 -0.118,7.017 2.204,0 3.895,0 6.023,0 0,-2.232 0,-4.171 -0.002,-7.006 m -24.027003,1.829 c 0,1.726 0,3.453 0,5.217 2.367,0 3.946,0 6.029,0 0,-2.182 0.352,-4.201 -0.096,-6.023 -0.484,-1.967 -1.587,-5.245 -2.646,-5.337 -3.394,-0.295 -3.339,2.738 -3.287,6.143 m -37.974,-6.026 c -4.565,0.599 -5.116,2.273 -3.626,11.167 1.689,0 3.391,0 5.915,0 -0.568,-3.854 -1.076,-7.303 -2.289,-11.167 m -22.16,3.429 c 0,2.58 0,5.159 0,7.688 2.301,0 4.001,0 5.971,0 0,-2.642 0.252,-4.966 -0.091,-7.199 -0.218,-1.416 -1.32,-2.697 -2.025,-4.038 -1.273,0.899 -2.546,1.798 -3.855,3.549 m 42.472,-9.829 c -5.432,1.234 -2.635,5.292 -3.294,8.609 2.142,0 3.844,0 6.872,0 -1.079,-3.157 -1.957,-5.727 -3.578,-8.609 z"
         id="path11" />
    </g>
    <text
       xml:space="preserve"
       id="text3"
       style="font-size:26.6667px;font-family:'Berlin Sans FB';-inkscape-font-specification:'Berlin Sans FB';text-align:center;white-space:pre;shape-inside:url(#rect3);display:inline;fill:#65476f;fill-opacity:1;stroke:none;stroke-width:1.00001;stroke-dasharray:none;stroke-opacity:1"
       transform="matrix(3.5853484,0,0,3.5307869,175.71645,-258.65294)"><tspan
         x="-36.397478"
         y="118.40974"
         id="tspan4"><tspan
           style="font-weight:bold;font-family:Calibri;-inkscape-font-specification:'Calibri Bold'"
           id="tspan3">FB</tspan></tspan></text>
  </g>
</svg>
